<svg width="139" height="30" viewBox="0 0 139 30" fill="none" xmlns="http://www.w3.org/2000/svg">
<g clip-path="url(#clip0_310_53)">
<path d="M7.18301 23.6866C5.44985 23.6866 3.96703 23.2629 2.67678 22.4156C1.40579 21.5683 0.500693 20.4513 0 19.0263L2.67678 17.7553C3.1197 18.6989 3.7552 19.45 4.54475 20.0084C5.3343 20.5669 6.22014 20.8365 7.18301 20.8365C8.01108 20.8365 8.66584 20.6439 9.18579 20.278C9.70574 19.9121 9.95608 19.4114 9.95608 18.776C9.95608 18.3908 9.84054 18.0634 9.60945 17.8131C9.37836 17.5627 9.10876 17.3509 8.76212 17.1776C8.41549 17.0235 8.08811 16.8887 7.72222 16.7732L5.10321 16.0414C3.63965 15.637 2.56124 15.0208 1.84871 14.1927C1.13619 13.3646 0.789554 12.4018 0.789554 11.3041C0.789554 10.3027 1.0399 9.41685 1.55985 8.64655C2.0798 7.89552 2.77307 7.29854 3.67817 6.89413C4.58326 6.48972 5.60391 6.27789 6.75935 6.27789C8.28069 6.27789 9.62871 6.64378 10.8227 7.39482C12.0166 8.14586 12.864 9.18576 13.3454 10.5145L10.6301 11.8048C10.3027 10.9767 9.78276 10.3412 9.0895 9.85977C8.39623 9.37834 7.60668 9.14725 6.72084 9.14725C5.95054 9.14725 5.35356 9.32056 4.91064 9.68646C4.46772 10.0523 4.23663 10.5145 4.23663 11.0922C4.23663 11.4774 4.33292 11.8048 4.54475 12.0551C4.75658 12.3055 5.02618 12.5173 5.35356 12.6714C5.68094 12.8254 6.02757 12.9602 6.3742 13.0565L9.0895 13.8653C10.4568 14.2505 11.5159 14.8667 12.267 15.6948C12.9988 16.5228 13.3839 17.5242 13.3839 18.6604C13.3839 19.6425 13.1143 20.5091 12.5943 21.2602C12.0744 22.0112 11.3426 22.5889 10.4183 23.0126C9.4939 23.4362 8.41549 23.6481 7.18301 23.6481V23.6866Z" fill="#0078D9"/>
<path d="M22.069 23.5133C20.3165 23.5133 18.9685 23.0126 18.0057 22.0305C17.0428 21.0483 16.5613 19.6618 16.5613 17.8708V9.82125H13.5957V6.64378H14.0579C14.8474 6.64378 15.4444 6.41269 15.8873 5.96977C16.3303 5.52685 16.5421 4.91061 16.5421 4.12106V2.83081H20.0277V6.64378H23.8214V9.82125H20.0277V17.7168C20.0277 18.2945 20.124 18.7759 20.2973 19.1804C20.4899 19.5848 20.7787 19.8929 21.1831 20.1047C21.5875 20.3165 22.1267 20.4321 22.7815 20.4321C22.9355 20.4321 23.1281 20.4321 23.34 20.3936C23.5518 20.3743 23.7444 20.3551 23.9177 20.3358V23.3207C23.6288 23.3592 23.3207 23.3977 22.9548 23.4362C22.6082 23.4748 22.3001 23.494 22.0304 23.494L22.069 23.5133Z" fill="#0078D9"/>
<path d="M31.3702 23.6866C30.1185 23.6866 29.0208 23.3978 28.0579 22.8393C27.0951 22.2808 26.3633 21.4913 25.8626 20.4707C25.3619 19.45 25.0923 18.2753 25.0923 16.9465V6.66309H28.5779V16.6384C28.5779 17.4087 28.7319 18.0635 29.0401 18.6412C29.3482 19.2189 29.7718 19.6618 30.3303 19.9892C30.8888 20.3166 31.5243 20.4707 32.2368 20.4707C32.9493 20.4707 33.6233 20.2973 34.1818 19.97C34.7402 19.6426 35.1639 19.1804 35.472 18.5834C35.7801 17.9864 35.9342 17.2932 35.9342 16.4844V6.66309H39.4198V23.3207H36.0883V20.047L36.4927 20.4707C36.1075 21.5106 35.4528 22.3194 34.5284 22.8586C33.6041 23.3978 32.5642 23.6674 31.3702 23.6674V23.6866Z" fill="#0078D9"/>
<path d="M49.222 23.6866C47.6429 23.6866 46.2178 23.3015 44.9468 22.5312C43.6758 21.7609 42.6937 20.721 41.9619 19.4115C41.2302 18.102 40.8643 16.6191 40.8643 14.9823C40.8643 13.3454 41.2302 11.8626 41.9619 10.5531C42.6937 9.24356 43.6951 8.20366 44.9468 7.43336C46.2178 6.68232 47.6236 6.29717 49.222 6.29717C50.5315 6.29717 51.7062 6.56678 52.7461 7.10599C53.786 7.64519 54.5948 8.37697 55.1918 9.32059L54.6333 10.1294V0H58.1189V23.3207H54.7874V19.9314L55.1918 20.5862C54.6141 21.5876 53.8052 22.3579 52.7461 22.8971C51.6869 23.4363 50.5122 23.7059 49.222 23.7059V23.6866ZM49.5879 20.4514C50.5507 20.4514 51.4173 20.2203 52.1684 19.7388C52.9194 19.2574 53.5356 18.6219 53.9786 17.7746C54.4215 16.9465 54.6333 16.0029 54.6333 14.963C54.6333 13.9231 54.4215 12.9988 53.9786 12.1707C53.5356 11.3426 52.9387 10.6879 52.1684 10.2064C51.3981 9.72499 50.5507 9.4939 49.5879 9.4939C48.625 9.4939 47.7584 9.74425 46.9689 10.2257C46.1793 10.7071 45.5823 11.3619 45.1587 12.1707C44.735 12.9795 44.5039 13.9039 44.5039 14.963C44.5039 16.0222 44.7157 16.9465 45.1587 17.7746C45.5823 18.6027 46.1986 19.2574 46.9689 19.7388C47.7392 20.2203 48.625 20.4514 49.6071 20.4514H49.5879Z" fill="#0078D9"/>
<path d="M60.2759 4.37145V0.365906H63.7615V4.37145H60.2759ZM60.2759 23.3207V6.66308H63.7615V23.3207H60.2759Z" fill="#0078D9"/>
<path d="M91.8575 19.7581C92.6278 20.2396 93.4944 20.4707 94.438 20.4707C95.3816 20.4707 96.306 20.2396 97.0763 19.7581C97.8466 19.2767 98.4436 18.6412 98.8865 17.7939C99.3294 16.9465 99.5412 16.0222 99.5412 14.9823C99.5412 13.9424 99.3294 12.9988 98.8865 12.19C98.4628 11.3812 97.8466 10.7264 97.0763 10.245C96.306 9.76353 95.4202 9.51318 94.438 9.51318C93.4559 9.51318 92.6278 9.74427 91.8575 10.2257C91.0872 10.7071 90.4903 11.3426 90.0473 12.19C89.6044 13.018 89.3926 13.9616 89.3926 14.9823C89.3926 16.0029 89.6044 16.9658 90.0473 17.7939C90.4903 18.6219 91.0872 19.2767 91.8575 19.7581Z" fill="#F2B52F"/>
<path d="M112.636 9.82129C109.786 9.82129 107.456 12.1514 107.456 15.0015C107.456 17.8516 109.786 20.1818 112.636 20.1818C115.486 20.1818 117.817 17.8516 117.817 15.0015C117.817 12.1514 115.486 9.82129 112.636 9.82129ZM112.636 18.256C110.845 18.256 109.382 16.7925 109.382 15.0015C109.382 13.2106 110.845 11.747 112.636 11.747C114.427 11.747 115.891 13.2106 115.891 15.0015C115.891 16.7925 114.427 18.256 112.636 18.256Z" fill="#F2B52F"/>
<path d="M127.676 0.423663V6.66307H131.47V9.84054H127.676V17.7361C127.676 18.3138 127.773 18.7952 127.946 19.1996C128.139 19.604 128.427 19.9122 128.832 20.124C129.236 20.3358 129.775 20.4514 130.43 20.4514C130.584 20.4514 130.777 20.4514 130.989 20.4129C131.201 20.3936 131.393 20.3743 131.566 20.3551V23.34C131.278 23.3785 130.969 23.417 130.604 23.4555C130.257 23.494 129.949 23.5133 129.679 23.5133C127.927 23.5133 126.579 23.0126 125.616 22.0305C124.653 21.0484 124.172 19.6618 124.172 17.8709V9.82128H121.206V6.64381H121.668C122.458 6.64381 123.055 6.41272 123.498 5.9698C123.94 5.52688 124.152 4.91064 124.152 4.12109V0H80.6306C72.4847 0 65.8794 6.60529 65.8794 14.7512C65.8794 22.8971 72.4847 29.5024 80.6306 29.5024H85.8493V6.66307H89.1809V8.83915C89.7393 8.12663 90.4133 7.52965 91.2414 7.08673C92.2621 6.54752 93.4368 6.27792 94.7463 6.27792C96.3254 6.27792 97.7504 6.66306 99.0214 7.4141C100.292 8.16514 101.275 9.20504 102.006 10.5338C102.738 11.8433 103.104 13.3261 103.104 14.963C103.104 16.5999 102.738 18.0827 102.006 19.3922C101.275 20.7017 100.292 21.7416 99.0407 22.5119C97.7889 23.2822 96.3639 23.6674 94.7655 23.6674C93.4753 23.6674 92.3006 23.3978 91.2414 22.8585C90.4711 22.4734 89.8549 21.8957 89.3542 21.2602V29.4638H124.229C132.375 29.4638 138.981 22.8585 138.981 14.7127C138.981 7.74148 134.147 1.92574 127.657 0.385148L127.676 0.423663ZM75.5851 12.0937C75.797 12.344 76.0666 12.5558 76.3939 12.7099C76.7213 12.864 77.068 12.9988 77.4146 13.095L80.1299 13.9039C81.4972 14.289 82.5563 14.9052 83.3074 15.7333C84.0391 16.5614 84.4243 17.5628 84.4243 18.6989C84.4243 19.6811 84.1547 20.5477 83.6347 21.2987C83.1148 22.0497 82.383 22.6275 81.4586 23.0511C80.5343 23.4748 79.4559 23.6866 78.2234 23.6866C76.4902 23.6866 75.0074 23.263 73.7172 22.4156C72.4462 21.5683 71.5411 20.4514 71.0404 19.0263L73.7172 17.7553C74.1601 18.6989 74.7956 19.45 75.5851 20.0085C76.3747 20.5669 77.2605 20.8365 78.2234 20.8365C79.0515 20.8365 79.7062 20.6439 80.2262 20.2781C80.7461 19.9122 80.9965 19.4115 80.9965 18.776C80.9965 18.3908 80.8809 18.0635 80.6498 17.8131C80.4187 17.5628 80.1491 17.3509 79.8025 17.1776C79.4559 17.0236 79.1285 16.8888 78.7626 16.7732L76.1436 16.0414C74.68 15.637 73.6016 15.0208 72.8891 14.1927C72.1766 13.3646 71.8299 12.4018 71.8299 11.3041C71.8299 10.3027 72.0803 9.41687 72.6002 8.64658C73.1202 7.89554 73.8134 7.29856 74.7185 6.89415C75.6236 6.48975 76.6443 6.27792 77.7997 6.27792C79.3211 6.27792 80.6691 6.64381 81.863 7.39485C83.057 8.14589 83.9043 9.18579 84.3858 10.5145L81.6705 11.8048C81.3431 10.9767 80.8231 10.3412 80.1299 9.8598C79.4366 9.37836 78.6471 9.14727 77.7612 9.14727C76.9909 9.14727 76.3939 9.32059 75.951 9.68648C75.5081 10.0524 75.277 10.5145 75.277 11.0923C75.277 11.4774 75.3733 11.8048 75.5851 12.0551V12.0937ZM120.185 19.4885C119.396 20.798 118.356 21.8186 117.027 22.5697C115.718 23.3207 114.254 23.7059 112.656 23.7059C111.057 23.7059 109.574 23.3207 108.246 22.5697C106.936 21.7994 105.896 20.7595 105.107 19.45C104.336 18.1405 103.932 16.6384 103.932 14.9823C103.932 13.3261 104.317 11.8048 105.087 10.4953C105.858 9.18579 106.898 8.16514 108.226 7.4141C109.536 6.66306 111.019 6.29717 112.656 6.29717C114.293 6.29717 115.775 6.66306 117.085 7.4141C118.375 8.16514 119.415 9.18579 120.185 10.4953C120.956 11.8048 121.341 13.2876 121.341 14.9823C121.341 16.6769 120.956 18.1597 120.185 19.4885V19.4885Z" fill="#F2B52F"/>
</g>
<defs>
<clipPath id="clip0_310_53">
<rect width="139" height="29.4831" fill="white"/>
</clipPath>
</defs>
</svg>
