<svg width="729" height="121" viewBox="0 0 729 121" fill="none" xmlns="http://www.w3.org/2000/svg">
<g clip-path="url(#clip0_1_2)">
<rect x="313" y="1" width="416" height="120" rx="60" fill="#F2B52F"/>
<path d="M16.08 37.84C18.24 34.32 21.04 31.56 24.48 29.56C28 27.56 32 26.56 36.48 26.56V44.2H32.04C26.76 44.2 22.76 45.44 20.04 47.92C17.4 50.4 16.08 54.72 16.08 60.88V94H-0.719999V27.52H16.08V37.84ZM101.196 59.32C101.196 61.72 101.036 63.88 100.716 65.8H52.1156C52.5156 70.6 54.1956 74.36 57.1556 77.08C60.1156 79.8 63.7556 81.16 68.0756 81.16C74.3156 81.16 78.7556 78.48 81.3956 73.12H99.5156C97.5956 79.52 93.9156 84.8 88.4756 88.96C83.0356 93.04 76.3556 95.08 68.4356 95.08C62.0356 95.08 56.2756 93.68 51.1556 90.88C46.1156 88 42.1556 83.96 39.2756 78.76C36.4756 73.56 35.0756 67.56 35.0756 60.76C35.0756 53.88 36.4756 47.84 39.2756 42.64C42.0756 37.44 45.9956 33.44 51.0356 30.64C56.0756 27.84 61.8756 26.44 68.4356 26.44C74.7556 26.44 80.3956 27.8 85.3556 30.52C90.3956 33.24 94.2756 37.12 96.9956 42.16C99.7956 47.12 101.196 52.84 101.196 59.32ZM83.7956 54.52C83.7156 50.2 82.1556 46.76 79.1156 44.2C76.0756 41.56 72.3556 40.24 67.9556 40.24C63.7956 40.24 60.2756 41.52 57.3956 44.08C54.5956 46.56 52.8756 50.04 52.2356 54.52H83.7956ZM124.618 41.32V73.48C124.618 75.72 125.138 77.36 126.178 78.4C127.298 79.36 129.138 79.84 131.698 79.84H139.498V94H128.938C114.778 94 107.698 87.12 107.698 73.36V41.32H99.7781V27.52H107.698V11.08H124.618V27.52H139.498V41.32H124.618ZM151.702 19.6C148.742 19.6 146.262 18.68 144.262 16.84C142.342 14.92 141.382 12.56 141.382 9.76C141.382 6.96 142.342 4.63999 144.262 2.79999C146.262 0.879995 148.742 -0.0800047 151.702 -0.0800047C154.662 -0.0800047 157.102 0.879995 159.022 2.79999C161.022 4.63999 162.022 6.96 162.022 9.76C162.022 12.56 161.022 14.92 159.022 16.84C157.102 18.68 154.662 19.6 151.702 19.6ZM159.982 27.52V94H143.182V27.52H159.982ZM205.02 26.56C212.94 26.56 219.34 29.08 224.22 34.12C229.1 39.08 231.54 46.04 231.54 55V94H214.74V57.28C214.74 52 213.42 47.96 210.78 45.16C208.14 42.28 204.54 40.84 199.98 40.84C195.34 40.84 191.66 42.28 188.94 45.16C186.3 47.96 184.98 52 184.98 57.28V94H168.18V27.52H184.98V35.8C187.22 32.92 190.06 30.68 193.5 29.08C197.02 27.4 200.86 26.56 205.02 26.56ZM234.796 60.52C234.796 53.8 236.116 47.84 238.756 42.64C241.476 37.44 245.116 33.44 249.676 30.64C254.316 27.84 259.476 26.44 265.156 26.44C270.116 26.44 274.436 27.44 278.116 29.44C281.876 31.44 284.876 33.96 287.116 37V27.52H304.036V94H287.116V84.28C284.956 87.4 281.956 90 278.116 92.08C274.356 94.08 269.996 95.08 265.036 95.08C259.436 95.08 254.316 93.64 249.676 90.76C245.116 87.88 241.476 83.84 238.756 78.64C236.116 73.36 234.796 67.32 234.796 60.52ZM287.116 60.76C287.116 56.68 286.316 53.2 284.716 50.32C283.116 47.36 280.956 45.12 278.236 43.6C275.516 42 272.596 41.2 269.476 41.2C266.356 41.2 263.476 41.96 260.836 43.48C258.196 45 256.036 47.24 254.356 50.2C252.756 53.08 251.956 56.52 251.956 60.52C251.956 64.52 252.756 68.04 254.356 71.08C256.036 74.04 258.196 76.32 260.836 77.92C263.556 79.52 266.436 80.32 269.476 80.32C272.596 80.32 275.516 79.56 278.236 78.04C280.956 76.44 283.116 74.2 284.716 71.32C286.316 68.36 287.116 64.84 287.116 60.76Z" fill="#0078D9"/>
<path d="M361.72 95.08C356.28 95.08 351.4 94.12 347.08 92.2C342.76 90.2 339.32 87.52 336.76 84.16C334.28 80.8 332.92 77.08 332.68 73H349.6C349.92 75.56 351.16 77.68 353.32 79.36C355.56 81.04 358.32 81.88 361.6 81.88C364.8 81.88 367.28 81.24 369.04 79.96C370.88 78.68 371.8 77.04 371.8 75.04C371.8 72.88 370.68 71.28 368.44 70.24C366.28 69.12 362.8 67.92 358 66.64C353.04 65.44 348.96 64.2 345.76 62.92C342.64 61.64 339.92 59.68 337.6 57.04C335.36 54.4 334.24 50.84 334.24 46.36C334.24 42.68 335.28 39.32 337.36 36.28C339.52 33.24 342.56 30.84 346.48 29.08C350.48 27.32 355.16 26.44 360.52 26.44C368.44 26.44 374.76 28.44 379.48 32.44C384.2 36.36 386.8 41.68 387.28 48.4H371.2C370.96 45.76 369.84 43.68 367.84 42.16C365.92 40.56 363.32 39.76 360.04 39.76C357 39.76 354.64 40.32 352.96 41.44C351.36 42.56 350.56 44.12 350.56 46.12C350.56 48.36 351.68 50.08 353.92 51.28C356.16 52.4 359.64 53.56 364.36 54.76C369.16 55.96 373.12 57.2 376.24 58.48C379.36 59.76 382.04 61.76 384.28 64.48C386.6 67.12 387.8 70.64 387.88 75.04C387.88 78.88 386.8 82.32 384.64 85.36C382.56 88.4 379.52 90.8 375.52 92.56C371.6 94.24 367 95.08 361.72 95.08ZM390.151 60.76C390.151 53.88 391.551 47.88 394.351 42.76C397.151 37.56 401.031 33.56 405.991 30.76C410.951 27.88 416.631 26.44 423.031 26.44C431.271 26.44 438.071 28.52 443.431 32.68C448.871 36.76 452.511 42.52 454.351 49.96H436.231C435.271 47.08 433.631 44.84 431.311 43.24C429.071 41.56 426.271 40.72 422.911 40.72C418.111 40.72 414.311 42.48 411.511 46C408.711 49.44 407.311 54.36 407.311 60.76C407.311 67.08 408.711 72 411.511 75.52C414.311 78.96 418.111 80.68 422.911 80.68C429.711 80.68 434.151 77.64 436.231 71.56H454.351C452.511 78.76 448.871 84.48 443.431 88.72C437.991 92.96 431.191 95.08 423.031 95.08C416.631 95.08 410.951 93.68 405.991 90.88C401.031 88 397.151 84 394.351 78.88C391.551 73.68 390.151 67.64 390.151 60.76Z" fill="white"/>
<path d="M594.08 37.12C596.24 34.08 599.2 31.56 602.96 29.56C606.8 27.48 611.16 26.44 616.04 26.44C621.72 26.44 626.84 27.84 631.4 30.64C636.04 33.44 639.68 37.44 642.32 42.64C645.04 47.76 646.4 53.72 646.4 60.52C646.4 67.32 645.04 73.36 642.32 78.64C639.68 83.84 636.04 87.88 631.4 90.76C626.84 93.64 621.72 95.08 616.04 95.08C611.16 95.08 606.84 94.08 603.08 92.08C599.4 90.08 596.4 87.56 594.08 84.52V125.68H577.28V27.52H594.08V37.12ZM629.24 60.52C629.24 56.52 628.4 53.08 626.72 50.2C625.12 47.24 622.96 45 620.24 43.48C617.6 41.96 614.72 41.2 611.6 41.2C608.56 41.2 605.68 42 602.96 43.6C600.32 45.12 598.16 47.36 596.48 50.32C594.88 53.28 594.08 56.76 594.08 60.76C594.08 64.76 594.88 68.24 596.48 71.2C598.16 74.16 600.32 76.44 602.96 78.04C605.68 79.56 608.56 80.32 611.6 80.32C614.72 80.32 617.6 79.52 620.24 77.92C622.96 76.32 625.12 74.04 626.72 71.08C628.4 68.12 629.24 64.6 629.24 60.52ZM713.208 59.32C713.208 61.72 713.048 63.88 712.728 65.8H664.128C664.528 70.6 666.208 74.36 669.168 77.08C672.128 79.8 675.768 81.16 680.088 81.16C686.328 81.16 690.768 78.48 693.408 73.12H711.528C709.608 79.52 705.928 84.8 700.488 88.96C695.048 93.04 688.368 95.08 680.448 95.08C674.048 95.08 668.288 93.68 663.168 90.88C658.128 88 654.168 83.96 651.288 78.76C648.488 73.56 647.088 67.56 647.088 60.76C647.088 53.88 648.488 47.84 651.288 42.64C654.088 37.44 658.008 33.44 663.048 30.64C668.088 27.84 673.888 26.44 680.448 26.44C686.768 26.44 692.408 27.8 697.368 30.52C702.408 33.24 706.288 37.12 709.008 42.16C711.808 47.12 713.208 52.84 713.208 59.32ZM695.808 54.52C695.728 50.2 694.168 46.76 691.128 44.2C688.088 41.56 684.368 40.24 679.968 40.24C675.808 40.24 672.288 41.52 669.408 44.08C666.608 46.56 664.888 50.04 664.248 54.52H695.808Z" fill="white"/>
<ellipse cx="514" cy="61.5" rx="55" ry="26.5" fill="white"/>
<circle cx="514" cy="62" r="24" fill="#F2B52F"/>
<circle cx="514" cy="62" r="14" fill="white"/>
</g>
<defs>
<clipPath id="clip0_1_2">
<rect width="729" height="121" fill="white"/>
</clipPath>
</defs>
</svg>
